HIERARCHY
ROOT Hips
{
	OFFSET 0.000000 0.000000 0.000000
	CHANNELS 6 Xposition Yposition Zposition Zrotation Yrotation Xrotation 
	JOINT LHipJoint
	{
		OFFSET 0.000000 0.000000 0.000000
		CHANNELS 3 Zrotation Yrotation Xrotation
		JOINT LeftUpLeg
		{
			OFFSET 1.363060 -1.794630 0.839290
			CHANNELS 3 Zrotation Yrotation Xrotation
			JOINT LeftLeg
			{
				OFFSET 2.448110 -6.726130 0.000000
				CHANNELS 3 Zrotation Yrotation Xrotation
				JOINT LeftFoot
				{
					OFFSET 2.562200 -7.039590 0.000000
					CHANNELS 3 Zrotation Yrotation Xrotation
					JOINT LeftToeBase
					{
						OFFSET 0.157640 -0.433110 2.322550
						CHANNELS 3 Zrotation Yrotation Xrotation
						End Site
						{
							OFFSET 0.000000 0.000000 0.000000
						}
					}
				}
			}
		}
	}
	JOINT RHipJoint
	{
		OFFSET 0.000000 0.000000 0.000000
		CHANNELS 3 Zrotation Yrotation Xrotation
		JOINT RightUpLeg
		{
			OFFSET -1.305520 -1.794630 0.839290
			CHANNELS 3 Zrotation Yrotation Xrotation
			JOINT RightLeg
			{
				OFFSET -2.542530 -6.985550 0.000000
				CHANNELS 3 Zrotation Yrotation Xrotation
				JOINT RightFoot
				{
					OFFSET -2.568260 -7.056230 0.000000
					CHANNELS 3 Zrotation Yrotation Xrotation
					JOINT RightToeBase
					{
						OFFSET -0.164730 -0.452590 2.363150
						CHANNELS 3 Zrotation Yrotation Xrotation
						End Site
						{
							OFFSET 0.000000 0.000000 0.000000
						}
					}
				}
			}
		}
	}
	JOINT LowerBack
	{
		OFFSET 0.000000 0.000000 0.000000
		CHANNELS 3 Zrotation Yrotation Xrotation
		JOINT Spine
		{
			OFFSET 0.028270 2.035590 -0.193380
			CHANNELS 3 Zrotation Yrotation Xrotation
			JOINT Spine1
			{
				OFFSET 0.056720 2.048850 -0.042750
				CHANNELS 3 Zrotation Yrotation Xrotation
				JOINT Neck
				{
					OFFSET 0.000000 0.000000 0.000000
					CHANNELS 3 Zrotation Yrotation Xrotation
					JOINT Neck1
					{
						OFFSET -0.054170 1.746240 0.172020
						CHANNELS 3 Zrotation Yrotation Xrotation
						JOINT Head
						{
							OFFSET 0.104070 1.761360 -0.123970
							CHANNELS 3 Zrotation Yrotation Xrotation
							End Site
							{
								OFFSET 0.000000 0.000000 0.000000
							}
						}
					}
				}
				JOINT LeftShoulder
				{
					OFFSET 0.000000 0.000000 0.000000
					CHANNELS 3 Zrotation Yrotation Xrotation
					JOINT LeftArm
					{
						OFFSET 3.362410 1.200890 -0.311210
						CHANNELS 3 Zrotation Yrotation Xrotation
						JOINT LeftForeArm
						{
							OFFSET 4.983000 -0.000000 -0.000000
							CHANNELS 3 Zrotation Yrotation Xrotation
							JOINT LeftHand
							{
								OFFSET 3.483560 -0.000000 -0.000000
								CHANNELS 3 Zrotation Yrotation Xrotation
								JOINT LeftFingerBase
								{
									OFFSET 0.000000 0.000000 0.000000
									CHANNELS 3 Zrotation Yrotation Xrotation
									JOINT LeftHandIndex1
									{
										OFFSET 0.715260 -0.000000 -0.000000
										CHANNELS 3 Zrotation Yrotation Xrotation
										End Site
										{
											OFFSET 0.000000 0.000000 0.000000
										}
									}
								}
								JOINT LThumb
								{
									OFFSET 0.000000 0.000000 0.000000
									CHANNELS 3 Zrotation Yrotation Xrotation
									End Site
									{
										OFFSET 0.000000 0.000000 0.000000
									}
								}
							}
						}
					}
				}
				JOINT RightShoulder
				{
					OFFSET 0.000000 0.000000 0.000000
					CHANNELS 3 Zrotation Yrotation Xrotation
					JOINT RightArm
					{
						OFFSET -3.136600 1.374050 -0.404650
						CHANNELS 3 Zrotation Yrotation Xrotation
						JOINT RightForeArm
						{
							OFFSET -5.241900 -0.000000 -0.000000
							CHANNELS 3 Zrotation Yrotation Xrotation
							JOINT RightHand
							{
								OFFSET -3.444170 -0.000000 -0.000000
								CHANNELS 3 Zrotation Yrotation Xrotation
								JOINT RightFingerBase
								{
									OFFSET 0.000000 0.000000 0.000000
									CHANNELS 3 Zrotation Yrotation Xrotation
									JOINT RightHandIndex1
									{
										OFFSET -0.622530 -0.000000 -0.000000
										CHANNELS 3 Zrotation Yrotation Xrotation
										End Site
										{
											OFFSET 0.000000 0.000000 0.000000
										}
									}
								}
								JOINT RThumb
								{
									OFFSET 0.000000 0.000000 0.000000
									CHANNELS 3 Zrotation Yrotation Xrotation
									End Site
									{
										OFFSET 0.000000 0.000000 0.000000
									}
								}
							}
						}
					}
				}
			}
		}
	}
}
MOTION
Frames: 5
Frame Time: 0.008333
-1.132481 18.816737 19.516264 -179.754015 -1.908443 -146.561927 34.973477 10.255952 1.709025 -59.255413 -29.583683 -17.802375 6.128055 4.533689 12.951650 -1.094195 -16.955294 -44.517976 0.704000 -5.362800 -14.946400 -38.800324 -10.771321 4.238576 64.135714 33.090414 -18.781102 -5.773736 -4.978852 13.169954 -1.945769 10.914163 -47.389660 -1.734900 8.290500 -23.600100 -5.280546 -1.995409 -31.079327 6.043158 -1.301864 -10.368982 -2.529680 -2.325598 22.509788 -14.155954 -4.226468 -0.769290 20.498583 -8.843447 19.795889 1.753800 -2.201900 4.343200 17.650970 -4.883957 1.590994 -111.394614 -4.414022 13.130015 21.706433 -21.138596 -2.832883 0.758742 -0.073678 1.131010 23.335688 -10.362999 -4.275700 -7.125000 0.000000 0.000000 -3.156400 18.791000 1.974400 -10.804313 3.286028 1.837574 105.501111 -2.400453 4.423311 -26.306677 34.266738 -5.541976 0.326519 -4.401267 -4.862943 -4.294865 -62.874687 3.666000 7.125000 0.000000 0.000000 88.536000 -73.661600 -71.434100 
-1.130949 18.820951 19.516838 -179.771487 -1.946903 -146.746007 34.977073 10.259279 1.734004 -59.336013 -29.473124 -17.647227 6.126306 4.518006 12.970185 -1.146687 -17.088448 -44.513002 0.725000 -5.440500 -15.169400 -38.773980 -10.774792 4.217395 64.178922 32.907841 -18.646454 -5.787143 -4.987076 13.256807 -1.934501 10.971228 -47.410903 -1.730500 8.280600 -23.569700 -5.353997 -2.065440 -31.048518 6.205355 -1.337933 -9.937065 -2.541640 -2.326345 22.333968 -14.115209 -4.215746 -0.878628 20.311535 -8.766102 19.626936 1.732900 -2.199400 4.333100 17.598742 -4.840810 1.549224 -111.417085 -4.462965 13.079902 21.719618 -21.188507 -2.839472 0.755927 -0.079860 1.164645 23.382328 -10.424124 -4.308400 -7.125000 0.000000 0.000000 -3.123300 18.727700 1.958100 -10.820053 3.246833 1.796118 105.480778 -2.391976 4.403014 -26.335541 34.315555 -5.554145 0.310342 -4.393852 -4.765993 -4.464569 -62.698611 3.796700 7.125000 0.000000 0.000000 87.949300 -73.718100 -70.893500 
-1.131044 18.817886 19.516647 -179.735467 -1.846794 -146.463422 34.960988 10.343363 1.755567 -59.220617 -29.574627 -17.941818 6.128307 4.544296 12.995816 -1.205128 -17.139643 -44.456042 0.685300 -5.292500 -14.744900 -38.691258 -10.864294 4.236499 64.005112 33.001176 -19.106924 -5.778624 -5.062640 13.494861 -1.740914 11.331324 -47.363490 -1.786400 8.406300 -23.955100 -5.364284 -2.101496 -31.085726 6.428801 -1.273732 -10.508413 -2.635059 -2.320842 22.566328 -14.098614 -4.153243 -0.762260 19.984376 -8.632207 19.454814 1.708600 -2.182800 4.313200 17.563877 -4.894284 1.585681 -111.499691 -4.431183 12.911969 21.731915 -21.227481 -2.846413 0.749707 -0.082504 1.221824 23.178341 -10.590424 -4.333000 -7.125000 0.000000 0.000000 -3.268900 18.568200 2.061200 -10.906346 3.267456 1.840472 105.435762 -2.395325 4.488807 -26.294146 34.237435 -5.528446 0.301934 -4.403044 -4.737050 -4.614426 -62.794129 3.922400 7.125000 0.000000 0.000000 88.239000 -73.765900 -71.246700 
-1.133248 18.819323 19.511762 -179.739891 -1.800631 -146.835615 34.960500 10.283268 1.731367 -59.409911 -29.303368 -17.451456 6.143180 4.471975 12.841893 -1.135944 -17.055429 -44.418793 0.641100 -5.122600 -14.258500 -38.729819 -10.901927 4.127488 64.275648 32.460020 -18.615847 -5.804832 -4.977081 13.433644 -1.646409 11.644744 -47.284233 -1.798000 8.431900 -24.033900 -5.228175 -1.976623 -31.002155 6.142773 -1.286308 -10.031098 -2.571352 -2.275369 22.394150 -13.988029 -4.143927 -0.733273 19.866631 -8.606733 19.412469 1.687300 -2.180800 4.296400 17.575319 -4.847006 1.553022 -111.469283 -4.398023 12.990975 21.759841 -21.258405 -2.855749 0.737452 -0.076925 1.135326 22.700973 -10.565781 -4.225200 -7.125000 0.000000 0.000000 -3.596800 18.630900 2.263700 -10.865408 3.265498 1.798180 105.440757 -2.404348 4.466925 -26.228182 34.161169 -5.494289 0.285469 -4.399155 -4.800638 -5.056487 -62.491233 4.267300 7.125000 0.000000 0.000000 87.176600 -73.910900 -70.320400 
-1.132098 18.815204 19.512145 -179.750276 -1.785480 -146.550167 34.937027 10.338607 1.747212 -59.318860 -29.447102 -17.753125 6.136111 4.506299 12.896333 -1.193677 -17.111646 -44.375301 0.655300 -5.177600 -14.415900 -38.681902 -10.976914 4.146971 64.120230 32.568815 -18.990013 -5.799836 -5.020255 13.571704 -1.497794 11.937072 -47.275734 -1.745600 8.314700 -23.674000 -5.261542 -1.985737 -31.035830 6.168265 -1.253429 -10.601705 -2.572223 -2.287555 22.672494 -14.023736 -4.031906 -0.455731 20.043603 -8.484152 18.840392 1.717800 -2.169300 4.227800 17.594980 -4.911165 1.574454 -111.479830 -4.391993 13.018483 21.764643 -21.262969 -2.858210 0.733683 -0.074712 1.016395 22.504942 -10.629119 -4.209400 -7.125000 0.000000 0.000000 -3.734500 18.578700 2.355100 -10.888690 3.264385 1.822539 105.480584 -2.445365 4.383792 -26.272273 34.206496 -5.518760 0.288384 -4.406792 -4.638395 -4.769063 -62.926809 4.054800 7.125000 0.000000 0.000000 88.678900 -73.813800 -71.755500 
